<svg width="14" height="24" viewBox="0 0 14 24" fill="none" xmlns="http://www.w3.org/2000/svg">
<path d="M1.59441 11.4023L11.2166 1.60526C11.5449 1.27099 12.0772 1.27099 12.4055 1.60526L12.4055 1.60526C12.7338 1.93954 12.7338 2.48151 12.4055 2.81579L2.78332 12.6129C2.45501 12.9471 1.92272 12.9471 1.59441 12.6129C1.2661 12.2786 1.2661 11.7366 1.59441 11.4023Z" fill="#B12A5B" fill-opacity="0.5" stroke="#C8524F" stroke-width="0.976744"/>
<path d="M11.3236 22.5063L1.50315 12.5073C1.23531 12.2346 1.23531 11.7925 1.50315 11.5198L1.50315 11.5198C1.77098 11.2471 2.20523 11.2471 2.47307 11.5198L12.2935 21.5187C12.5613 21.7914 12.5613 22.2336 12.2935 22.5063C12.0257 22.779 11.5914 22.779 11.3236 22.5063Z" fill="#B12A5B" fill-opacity="0.5" stroke="#C8524F" stroke-width="0.976744"/>
</svg>
